PathFileType	4	(X/Y/Z)	D:\TRACE\v60_Jaco2_6-2-23\JustBodyDRS_Motion3_7-platform.trc
DataRate	CameraRate	NumFrames	NumMarkers	Units	OrigDataRate	OrigDataStartFrame	OrigNumFrames
100.00	100.00	      71	5	mm	100.00	4376	      7000
Frame#	Time	Left_Front			Right_Front			Left_Aft			Right_Aft			Post			
		X1	Y1	Z1	X2	Y2	Z2	X3	Y3	Z3	X4	Y4	Z4	X5	Y5	Z5	

4376	43.750	-771.70673	-70.17046	-665.11597	799.22522	-71.16990	-642.62592	-702.45258	63.55485	461.02948	712.33295	71.67066	566.17120	26.05444	1180.52588	-1130.03015	
4377	43.760	-771.50470	-69.51154	-664.87164	799.35699	-70.71310	-642.53998	-702.65857	63.56166	461.13693	712.57349	71.37772	566.35602	26.22227	1181.60046	-1128.69482	
4378	43.770	-771.44824	-69.11944	-664.78186	799.45398	-70.30182	-642.40338	-702.49396	63.15851	461.34250	712.60345	71.04725	566.42596	26.20329	1181.94897	-1128.27637	
4379	43.780	-771.54980	-69.16370	-664.91315	799.56500	-69.91599	-642.30469	-702.59906	62.86393	461.41028	712.65228	70.67590	566.49780	26.28440	1182.53088	-1127.56665	
4380	43.790	-771.46600	-69.06577	-665.08160	799.62976	-69.58834	-642.20673	-702.33618	62.00511	461.91342	712.62372	70.37367	566.61157	26.29725	1183.41284	-1126.51379	
4381	43.800	-771.29120	-68.33401	-664.87457	799.64276	-69.22492	-642.20471	-702.49799	62.32672	461.77463	712.68323	70.04142	566.71014	26.30765	1183.98828	-1125.72339	
4382	43.810	-771.14136	-67.76828	-664.84503	799.69348	-68.87270	-642.15186	-702.09601	61.54100	462.18686	712.86151	69.69247	566.90857	26.77017	1184.66211	-1124.88037	
4383	43.820	-770.69476	-67.53533	-664.71075	799.81409	-68.38092	-642.15692	-702.02905	61.36680	462.17661	712.79010	69.44506	567.01471	26.56151	1185.35547	-1123.86890	
4384	43.830	-770.75848	-66.86638	-664.50824	799.80383	-67.92670	-642.23938	-702.12775	61.63895	462.14539	712.74115	69.18767	567.17365	26.30525	1186.16748	-1123.11169	
4385	43.840	-771.04901	-66.52210	-664.64612	799.85052	-67.57522	-642.16071	-702.05475	61.36108	462.25836	712.99725	68.82825	567.32263	26.61138	1186.88049	-1122.31616	
4386	43.850	-771.22125	-66.27942	-664.50330	799.81006	-67.17866	-642.00677	-702.10510	61.15797	462.36923	713.12115	68.54128	567.44977	26.70657	1187.33020	-1121.05383	
4387	43.860	-770.92804	-65.77557	-664.46057	799.87238	-66.75458	-641.91974	-701.98401	60.88882	462.48151	713.25433	68.12880	567.72913	26.52441	1188.10254	-1120.05151	
4388	43.870	-770.69946	-65.06596	-664.43689	799.98108	-66.29469	-641.83215	-701.89716	60.59962	462.69943	713.35931	67.83203	567.82739	26.86291	1189.20215	-1119.53589	
4389	43.880	-770.54358	-64.61517	-664.23737	800.10425	-65.83244	-641.80402	-701.80090	60.20706	462.86063	713.22375	67.51257	567.91003	26.83490	1189.83948	-1118.46277	
4390	43.890	-770.20306	-64.91252	-664.37994	800.10034	-65.36432	-641.75439	-701.71625	59.98219	462.92624	713.24335	67.08222	568.06775	26.87102	1190.37305	-1117.35339	
4391	43.900	-770.28821	-64.10740	-664.19849	800.16675	-64.99496	-641.69543	-701.65942	59.65816	463.02011	713.21741	66.67980	568.27100	27.00602	1191.44373	-1116.69336	
4392	43.910	-770.50647	-63.43487	-663.99011	800.18817	-64.48791	-641.64441	-701.48187	59.03007	463.21533	713.34265	66.22365	568.41193	26.68760	1192.08472	-1115.83350	
4393	43.920	-770.31262	-62.59053	-663.91278	800.29065	-63.97384	-641.60693	-701.25275	58.54136	463.57251	713.48883	65.92990	568.51093	27.18640	1192.92627	-1114.88647	
4394	43.930	-770.30646	-62.20184	-664.09766	800.29993	-63.50791	-641.46411	-701.18347	58.35698	463.68921	713.61517	65.71869	568.60455	27.14121	1193.65857	-1113.77991	
4395	43.940	-770.46936	-61.97340	-663.85913	800.41168	-63.08548	-641.28510	-701.21124	58.17016	463.82797	713.64221	65.45303	568.70306	26.98747	1194.19165	-1112.92200	
4396	43.950	-769.81213	-62.03757	-663.84650	800.45593	-62.84917	-641.32611	-701.09821	57.79990	464.06177	713.67859	65.07843	568.91309	27.24889	1195.27209	-1112.25830	
4397	43.960	-769.79852	-61.65865	-663.79816	800.50256	-62.31182	-641.22485	-700.99213	57.46220	464.25565	713.83099	64.69472	569.12628	27.43040	1195.82703	-1111.00195	
4398	43.970	-769.67749	-61.07861	-663.75714	800.50500	-62.03100	-641.09967	-700.95984	57.26413	464.24490	713.75891	64.27287	569.22375	27.20607	1196.34119	-1110.07178	
4399	43.980	-769.66248	-60.11179	-663.75085	800.60504	-61.37604	-641.04468	-700.84625	57.13131	464.24265	713.84808	63.89888	569.33203	27.46854	1197.37427	-1109.64063	
4400	43.990	-770.14777	-59.49578	-663.62714	800.92645	-60.96180	-641.50195	-700.73041	56.93708	464.35309	713.87885	63.57431	569.42841	27.39299	1198.10437	-1108.74890	
4401	44.000	-769.98834	-58.94702	-663.30829	801.03009	-60.61691	-641.36523	-700.67389	56.64790	464.59070	713.99396	63.37716	569.55023	27.21941	1198.54773	-1107.76855	
4402	44.010	-769.69690	-58.81862	-663.55139	801.10992	-60.43110	-641.24463	-700.63934	56.27338	464.79568	714.24335	63.06945	569.75098	27.84901	1199.25635	-1107.18103	
4403	44.020	-769.52411	-58.54071	-663.48944	801.19684	-60.14462	-641.22211	-700.63568	55.89649	464.93491	714.38910	62.81176	569.85931	27.76939	1200.04907	-1106.29492	
4404	44.030	-769.43408	-58.11741	-663.45929	801.30188	-59.59846	-641.23639	-700.42786	55.62944	464.87067	714.73297	62.51484	570.02545	27.72592	1201.14331	-1105.58801	
4405	44.040	-769.31982	-58.19271	-663.57300	801.55078	-59.07251	-641.14587	-700.28326	55.32208	464.97614	714.48395	62.05124	570.13422	28.16218	1201.47021	-1104.86694	
4406	44.050	-769.08276	-57.45592	-663.25928	801.73248	-58.66037	-640.96149	-700.20959	55.15335	465.08740	714.60461	61.83758	570.34338	28.26014	1202.09229	-1103.87207	
4407	44.060	-768.91931	-56.97109	-663.16632	801.72614	-58.29427	-640.87616	-700.23315	54.92467	465.14362	714.61078	61.55022	570.43317	27.94095	1203.05701	-1102.98401	
4408	44.070	-768.94983	-56.59377	-663.17804	801.66370	-57.97735	-640.91406	-700.23450	54.56225	465.26572	714.70789	61.08116	570.57654	28.08183	1203.63928	-1102.31934	
4409	44.080	-768.93457	-56.06616	-663.10938	801.62775	-57.72357	-640.96344	-700.17993	54.30544	465.37546	714.76270	60.77936	570.70294	28.35513	1203.98853	-1101.27405	
4410	44.090	-768.55212	-55.43097	-662.89636	801.66534	-57.40695	-641.02893	-699.96716	54.12371	465.50330	714.88281	60.41573	570.86310	28.35957	1204.77795	-1100.15283	
4411	44.100	-768.72839	-55.40248	-663.42969	801.91876	-56.79208	-641.00952	-699.76038	53.91701	465.66162	714.99139	60.22775	570.89954	28.70698	1205.40747	-1099.57886	
4412	44.110	-768.42163	-54.80868	-663.09686	802.14746	-56.40178	-640.91089	-699.64148	53.79691	465.71417	715.05164	59.97813	571.01190	28.52622	1206.00098	-1098.91724	
4413	44.120	-767.90942	-55.03698	-663.17303	802.09930	-56.29676	-640.95197	-699.48877	53.49363	465.87021	715.16760	59.78732	571.07690	28.61652	1206.63953	-1097.98083	
4414	44.130	-767.90192	-54.66803	-663.01062	802.12811	-56.13013	-640.92206	-699.37372	53.18071	466.07605	715.45221	59.50814	571.17261	28.92203	1207.06641	-1097.19580	
4415	44.140	-767.98553	-54.26591	-662.87842	802.06641	-55.84916	-640.92590	-699.32007	53.02853	466.21103	715.50696	59.22196	571.43018	29.14478	1207.46033	-1096.86243	
4416	44.150	-767.75885	-53.76934	-662.83350	802.34259	-55.44190	-640.83923	-699.14313	52.88220	466.33542	715.62640	59.02831	571.60175	29.21738	1208.12500	-1096.50952	
4417	44.160	-767.69946	-53.65001	-663.32520	802.96375	-54.75509	-640.41522	-698.96008	52.68610	466.38547	715.94623	58.83312	571.58789	29.04097	1208.80811	-1096.06238	
4418	44.170	-767.51428	-53.00903	-662.97858	803.07373	-54.47588	-640.40186	-698.81158	52.52064	466.42010	715.97705	58.54929	571.58862	29.06211	1209.36584	-1095.54053	
4419	44.180	-767.40619	-52.78708	-662.94086	803.24109	-54.22301	-640.33856	-698.76001	52.30835	466.57852	716.06317	58.38794	571.55469	29.37540	1209.74231	-1094.87610	
4420	44.190	-767.36890	-52.46411	-662.80762	803.44928	-53.89368	-640.11133	-698.59570	52.11613	466.69711	716.19904	57.85892	571.80402	29.62469	1209.98950	-1093.91772	
4421	44.200	-767.16016	-52.14810	-662.63977	803.64539	-53.53228	-640.10236	-698.39935	51.87523	466.83926	716.48700	57.66285	572.08337	29.94319	1210.55151	-1093.81067	
4422	44.210	-766.91833	-51.67124	-662.57550	803.95526	-53.13437	-639.97101	-698.15643	51.67120	466.90054	716.89148	57.47689	571.96198	29.95346	1210.89587	-1093.27441	
4423	44.220	-766.63904	-51.36885	-662.60492	804.18481	-52.77245	-640.01178	-697.99207	51.47996	466.94217	717.21332	57.09936	572.01514	30.14827	1211.64709	-1092.41968	
4424	44.230	-766.50464	-51.19854	-662.57019	804.35516	-52.60045	-640.03021	-697.81873	51.26181	467.03574	717.00055	56.90018	571.98315	30.24568	1212.17639	-1091.31848	
4425	44.240	-766.06781	-51.41089	-662.53839	804.43799	-52.44696	-640.00446	-697.58942	50.94312	467.11594	717.04486	56.66683	572.08105	30.29556	1212.39697	-1090.92529	
4426	44.250	-765.92328	-51.25837	-662.31860	804.49365	-52.32759	-639.98950	-697.47961	50.84153	467.18890	717.24249	56.73152	572.32806	30.76477	1212.75159	-1090.66663	
4427	44.260	-765.72943	-51.03288	-662.29315	804.74359	-52.05729	-639.89362	-697.26807	50.78765	467.21234	717.51202	56.66614	572.39795	30.75539	1213.10547	-1090.07202	
4428	44.270	-765.71613	-50.41453	-661.97595	805.19733	-51.65321	-639.86188	-697.03882	50.73102	467.26288	717.83826	56.42200	572.41113	31.11370	1213.50244	-1089.49805	
4429	44.280	-765.46454	-50.37563	-662.11389	805.29236	-51.51303	-639.86639	-696.87793	50.63794	467.39325	718.10114	56.27767	572.49280	31.32640	1213.96167	-1089.07007	
4430	44.290	-765.61896	-50.54591	-662.18610	805.51221	-51.37037	-639.88306	-696.69849	50.46670	467.44525	718.31018	56.11998	572.58563	31.61444	1214.35608	-1088.72400	
4431	44.300	-765.07465	-50.10877	-662.21539	805.59735	-51.24237	-639.88641	-696.39966	50.28220	467.57199	718.47571	55.95954	572.73413	31.75687	1214.70447	-1088.44458	
4432	44.310	-764.97894	-49.54286	-662.02533	805.77808	-50.98583	-639.80188	-696.16235	50.12629	467.64520	718.65039	55.81615	572.80634	32.01292	1215.08740	-1088.21753	
4433	44.320	-764.71826	-49.59196	-662.11334	806.20386	-50.57357	-639.68719	-695.90961	49.98198	467.67154	718.86469	55.66727	572.85394	31.75703	1215.15869	-1087.74915	
4434	44.330	-764.52649	-49.29033	-662.05566	806.31348	-50.37543	-639.70935	-695.79102	49.94431	467.62247	719.10419	55.51840	572.86127	32.24895	1215.55383	-1087.89990	
4435	44.340	-764.11859	-48.91353	-661.99451	806.54932	-50.21345	-639.61707	-695.62524	49.95698	467.68469	719.43707	55.37251	572.88019	32.70734	1215.99756	-1087.27527	
4436	44.350	-763.94556	-48.82615	-661.88635	806.74017	-50.28955	-639.61993	-695.29999	49.72308	467.84756	719.59192	55.19429	572.87402	33.10115	1216.31677	-1086.56824	
4437	44.360	-763.87000	-48.89458	-661.88989	807.00659	-50.00769	-639.56281	-695.01740	49.52029	467.82886	719.82355	55.05152	572.92188	33.33391	1216.50952	-1086.18970	
4438	44.370	-763.69238	-48.75573	-661.94000	807.22662	-49.69213	-639.60370	-694.84717	49.41431	467.77136	720.05676	54.85488	573.01245	33.38078	1216.70642	-1085.87268	
4439	44.380	-763.44653	-48.22525	-662.20996	807.41309	-49.48957	-639.63068	-694.65356	49.34725	467.69354	720.25940	54.75326	573.08539	33.36924	1216.96509	-1085.53430	
4440	44.390	-763.15979	-47.92018	-662.22290	807.63177	-49.23727	-639.56268	-694.53235	49.74628	467.60324	720.67780	54.59632	573.23364	33.53155	1217.45374	-1085.24219	
4441	44.400	-762.82098	-47.65196	-662.05188	807.96399	-48.90472	-639.52429	-694.08374	49.33019	467.78000	720.81873	54.49340	573.25317	33.82293	1217.77661	-1084.58618	
4442	44.410	-762.58856	-47.50253	-661.90582	808.27020	-48.66282	-639.51538	-693.69348	49.07101	467.82941	720.95801	54.37992	573.29816	34.61316	1218.23022	-1084.25110	
4443	44.420	-762.43896	-47.34735	-661.84888	808.46021	-48.69985	-639.55499	-693.75275	49.04137	467.83502	721.17468	54.19654	573.34631	34.91782	1218.43347	-1083.90137	
4444	44.430	-762.23462	-47.22105	-661.71613	808.73230	-48.62814	-639.52161	-693.64270	48.94514	467.90234	721.49121	53.98253	573.37402	34.95702	1218.58337	-1083.62244	
4445	44.440	-761.85870	-47.04308	-661.61554	808.98871	-48.36652	-639.45099	-693.41608	48.88244	468.00201	721.82880	53.87220	573.48633	35.07505	1218.91101	-1083.16150	
4446	44.450	-761.70825	-46.93019	-661.51636	809.27917	-47.99112	-639.39789	-692.99933	48.76624	468.06696	722.20868	53.77076	573.53406	35.08358	1219.14075	-1082.88501	
